<?xml version="1.0" encoding="UTF-8" standalone="no"?>
<!-- Created with Inkscape (http://www.inkscape.org/) -->

<svg
   version="1.1"
   id="svg1"
   width="597.3429"
   height="559.12067"
   viewBox="0 0 597.3429 559.12067"
   sodipodi:docname="magnific_clean-modern-logo-simple-_2992283062.png"
   xmlns:inkscape="http://www.inkscape.org/namespaces/inkscape"
   xmlns:sodipodi="http://sodipodi.sourceforge.net/DTD/sodipodi-0.dtd"
   xmlns="http://www.w3.org/2000/svg"
   xmlns:svg="http://www.w3.org/2000/svg">
  <defs
     id="defs1" />
  <sodipodi:namedview
     id="namedview1"
     pagecolor="#ffffff"
     bordercolor="#000000"
     borderopacity="0.25"
     inkscape:showpageshadow="2"
     inkscape:pageopacity="0.0"
     inkscape:pagecheckerboard="0"
     inkscape:deskcolor="#d1d1d1">
    <inkscape:page
       x="0"
       y="0"
       width="597.3429"
       height="559.12067"
       id="page2"
       margin="0"
       bleed="0" />
  </sodipodi:namedview>
  <g
     inkscape:groupmode="layer"
     inkscape:label="Image"
     id="g1"
     transform="translate(-38.416889,-440.60031)">
    <path
       d="m 54.371094,874.9707 -2.513672,2.25 c -7.205279,6.44705 -11.698736,15.74554 -12.716797,23.23242 0.229652,-0.0155 3.102079,-0.0259 3.644531,-0.041 -0.0392,-0.202 -0.0704,-0.3943 -0.376953,-0.76367 -1.44998,-1.74712 9.264623,-19.57758 12.851563,-21.38672 3.59918,-1.81535 152.382684,-1.83954 155.884764,-0.0254 1.89407,0.98117 14.11524,19.39497 14.11524,21.26758 0,0.25102 -38.92921,0.44528 -85.55665,0.45507 1.18396,0.33617 2.34065,0.73543 3.4629,1.19532 88.43726,0.14402 86.54017,0.0635 82.4375,5.55859 -3.17852,4.25729 -6.18783,4.65617 -39.33008,5.2207 l -29.5918,0.50391 c 0.0932,0.18072 0.18365,0.36237 0.27148,0.54492 l 27.97461,-0.006 c 16.04252,-0.003 29.86888,0.26343 30.72461,0.5918 1.35957,0.52172 1.48625,3.01351 1.01172,19.75 -0.34438,12.14583 -0.37148,16.30485 0.0996,17.28906 0.0143,-0.53183 0.0331,-1.0941 0.0645,-1.9082 -0.0117,0.71034 -0.0211,1.38951 -0.0371,2.03906 0.21153,0.34463 0.49251,0.29315 0.91992,-0.23633 2.50694,-3.10561 23.29506,-2.96892 29.20508,0.19141 14.73549,7.87966 14.57927,34.46743 -0.25196,43.0332 -3.94413,2.27793 -37.40229,3.16712 -37.40429,0.99414 -4.1e-4,-0.4125 0.41282,-0.75 0.91796,-0.75 1.6386,0 5.08567,-6.65521 4.98047,-9.61718 l -0.0273,-0.77344 -0.0762,-2.10938 -0.76563,3.22461 c -0.96666,4.0686 -3.41049,7.83056 -6.29297,9.6875 -2.50852,1.61604 -75.6357,2.54467 -125.070309,1.58789 l -25.833984,-0.5 -2.808594,-3.14648 c -3.28449,-3.67827 -3.662842,-8.28217 -4.388672,-53.60352 l -0.412109,-25.75 h 29.21289 25.416018 c 0.12847,-0.16473 0.25933,-0.32815 0.39258,-0.49023 -3.44413,-0.23221 -10.638632,-0.49344 -23.150394,-0.60742 -28.97826,-0.264 -35.709557,-0.96423 -39.035157,-4.0625 -2.50179,-2.33077 -2.788646,-6.83985 -0.435547,-6.83985 0.689694,0 0.954364,-0.14604 0.976563,-0.41015 -0.569913,-0.0159 -3.470485,-0.029 -3.726563,-0.0449 -0.810355,6.07258 0.62608,10.9659 5.138672,11.95704 l 2.988282,0.65625 0.08594,16.17187 c 0.30924,58.14056 1.068135,63.88137 8.984375,67.91797 4.104889,2.0931 94.355519,2.46987 148.896479,1.48047 21.95091,-0.3982 39.15868,-0.96007 41.03321,-1.8086 9.08479,-4.11236 12.83323,-9.54549 13.69726,-19.85156 1.92856,-23.00392 -5.61337,-31.06836 -29.05859,-31.06836 h -12.9375 l 0.64843,-9.15429 c 0.35736,-5.0345 0.6504,-12.24432 0.6504,-16.02344 0,-6.57653 0.1179,-6.91687 2.75,-7.91406 10.45526,-3.96107 8.81584,-13.64195 -5.70508,-33.6875 l -3.05664,-4.22071 h -79.43946 z"
       style="fill:#316342;fill-opacity:1;stroke:#795932;stroke-opacity:1"
       id="path37"
       inkscape:label="gift-outline" />
    <path
       d="m 510.87695,744.9707 c 19.02412,0 18.38282,-0.96159 18.38282,27.54688 0,20.11732 -0.11383,21.44406 -1.9336,22.41797 -2.63726,1.41142 -53.71747,1.40992 -54.58984,-0.002 -0.71388,-1.15508 -0.20199,-2.1947 13.26562,-26.96289 13.81358,-25.40445 11.21294,-23 24.875,-23 z"
       style="fill:#316342;fill-opacity:1;stroke:#795932;stroke-opacity:1"
       id="path47"
       inkscape:label="house-wall-4" />
    <path
       d="m 466.75977,803.96094 31,0.25586 31,0.2539 0.27148,18.80469 0.27344,18.80469 -2.94532,2.94531 -2.94531,2.94531 h -32.5 -32.5 l -3.01172,-2.5332 c -7.06517,-5.94494 -6.66111,-8.93688 3.74024,-27.7207 z"
       style="fill:#316342;fill-opacity:1;stroke:#795932;stroke-opacity:1"
       id="path46"
       inkscape:label="house-wall-3" />
    <path
       d="m 186.38086,796.20508 30.37891,0.26562 9.20703,16.5 c 10.07349,18.05394 10.99185,20.6883 9.34961,26.78711 -2.24775,8.34751 -1.56371,8.21289 -41.74024,8.21289 h -35.41211 l -2.45117,-2.64648 c -2.98324,-3.21898 -3.9399,-45.87427 -1.08203,-48.2461 0.97354,-0.80795 10.16776,-1.0612 31.75,-0.87304 z"
       style="fill:#316342;fill-opacity:1;stroke:#795932;stroke-opacity:1"
       id="path45"
       inkscape:label="house-wall-2" />
    <path
       d="m 173.63281,744.9707 h 15.46289 l 1.98242,3.25 c 6.29482,10.32041 20.17107,37.33395 19.7461,38.44141 -0.53821,1.40253 -55.51754,2.02349 -56.89844,0.64258 -0.36667,-0.36666 -0.66601,-8.93855 -0.66601,-19.04688 0,-24.47828 -1.04135,-23.28711 20.37304,-23.28711 z"
       style="fill:#316342;fill-opacity:1;stroke:#795932;stroke-opacity:1"
       id="path44"
       inkscape:label="house-wall-1" />
    <path
       d="m 339.58789,521.58984 c -91.10906,2.24156 -150.8234,120.85106 -77.50586,194.3711 20.32752,20.38367 39.97389,29.81616 71.67774,34.41211 5.87296,0.85137 23.78365,-0.42259 33.3164,-2.36914 113.19149,-23.11325 122.68948,-181.45242 13.1836,-219.7793 -14.00072,-4.90023 -27.6563,-6.95499 -40.67188,-6.63477 z"
       style="fill:none;fill-opacity:1;stroke:#795932;stroke-opacity:1"
       id="path43"
       inkscape:label="map-pin-inner-circle" />
    <path
       d="m 346.37109,441.22266 c -1.58647,-0.21738 -3.14833,-0.1041 -5.25781,0.0332 -7.75941,0.50502 -2.97436,-2.4522 -48.85351,30.20312 -18.425,13.11433 -36.73881,26.13158 -40.69727,28.92774 -3.95845,2.79616 -13.40845,9.57191 -21,15.05664 -7.59154,5.48472 -20.55273,14.8092 -28.80273,20.72266 l -15,10.75195 -0.27149,-19.65235 c -0.17167,-12.41482 0.10454,-20.02836 0.75,-20.67382 1.83404,-1.83404 1.16229,-7.84282 -1.15234,-10.30664 -3.22129,-3.4289 -46.87754,-3.63548 -51.19141,-0.24219 -2.72674,2.14486 -3.7616,8.11327 -1.63476,9.42773 0.64057,0.39589 0.98191,14.7041 0.94921,39.8086 l -0.0508,39.1914 -33.07422,23.5 c -45.804327,32.54628 -48.676366,34.71058 -50.874996,38.31641 -5.9892,9.82247 2.779172,23.68359 14.982422,23.68359 5.6488,0 6.504803,-0.45737 23.814453,-12.73828 L 95.25,652.80078 95.505859,761.63672 95.759766,870.4707 h 12.500004 12.5 l 0.26562,-118 0.26563,-118 3.23437,-2.16015 c 5.53233,-3.69396 16.42562,-11.42135 38.73438,-27.47657 26.35583,-18.96783 24.24467,-17.69454 22.53125,-13.59375 -5.93114,14.1952 -8.29101,58.43705 -4.22657,79.23047 7.40133,37.86482 19.63699,64.24893 74.20117,160 11.07891,19.44165 49.10196,86.79973 52.49805,93 21.33965,38.9599 22.59156,40.56757 32.75586,42.0918 10.16587,1.52446 15.71853,-3.15339 26.81836,-22.5918 4.23986,-7.425 13.65675,-23.85 20.92773,-36.5 91.17567,-158.62643 102.62155,-180.739 113.35352,-219.01953 7.76896,-27.71156 8.23433,-59.59077 1.29492,-88.61914 l -1.82617,-7.63867 14.58594,10.57226 c 8.02229,5.81501 21.72942,15.73765 30.46094,22.05079 l 15.875,11.47851 -0.625,5.98438 c -0.34402,3.29138 -0.625,73.19357 -0.625,155.33789 V 945.9707 h -59.29493 -59.29297 l -5.4375,3.25 c -16.62363,9.93708 -14.49313,40.77755 3.3125,47.94532 3.84386,1.54736 11.77576,1.69953 90.7129,1.74023 l 86.5,0.0449 5,-2.35742 c 9.77632,-4.61029 12.5,-9.95427 12.5,-24.52539 0,-20.63857 -5.56872,-25.32702 -31,-26.09766 l -16.5,-0.5 -0.25391,-146.33008 -0.25195,-146.33007 6.75195,4.76367 c 3.71434,2.61909 9.26424,6.51104 12.33203,8.65039 9.54822,6.65852 18.04801,5.69238 24.51563,-2.78711 6.70092,-8.78535 4.18043,-17.71569 -7.23438,-25.64258 -4.32311,-3.00213 -20.90937,-14.84185 -36.85937,-26.31055 -15.95,-11.46867 -37.325,-26.77176 -47.5,-34.00781 -30.49238,-21.68497 -57.94371,-41.39649 -67.5,-48.46679 -4.95,-3.6623 -15.075,-11.01159 -22.5,-16.33204 -15.62612,-11.19703 -41.21803,-29.64018 -72.5,-52.24804 -20.64844,-14.92288 -25.62926,-18.55491 -30.38868,-19.20703 z m 1.57618,77.85937 c 7.9975,0.24015 16.01805,1.38362 23.93164,3.51367 3.23419,0.87053 6.55586,1.64798 7.38086,1.72852 0.825,0.0806 1.725,0.39981 2,0.70898 0.275,0.30917 3.2,1.61998 6.5,2.91407 55.9777,21.95155 86.88917,88.78248 67.31054,145.52343 -19.15459,55.51206 -79.18532,90.05501 -134.81054,77.57227 -12.16974,-2.73099 -26.46256,-8.00749 -33.46485,-12.35352 -46.15417,-28.64597 -67.12497,-71.6855 -59.0625,-121.21875 9.36486,-57.53465 64.2323,-100.06971 120.21485,-98.38867 z"
       style="fill:#316342;fill-opacity:1;stroke:#795932;stroke-opacity:1"
       id="path42"
       inkscape:label="map-pin" />
    <path
       d="m 42.785156,900.41211 c 7.643992,-0.21343 41.246915,-0.37008 79.785154,-0.4082 a 29.129799,24.234034 0 0 1 7.90235,-1.3086 29.129799,24.234034 0 0 1 9.23046,1.26367 c 46.62744,-0.01 85.55665,-0.20405 85.55665,-0.45507 0,-1.87261 -12.22117,-20.28641 -14.11524,-21.26758 -3.50208,-1.81415 -152.285584,-1.78996 -155.884764,0.0254 -3.58694,1.80914 -14.301543,19.6396 -12.851563,21.38672 0.306554,0.36937 0.337757,0.56167 0.376953,0.76367 z"
       style="fill:#316342;fill-opacity:1;stroke:#795932;stroke-opacity:1"
       id="path41" />
    <path
       d="m 42.859375,900.56055 c -0.0222,0.26411 -0.286869,0.41015 -0.976563,0.41015 -2.353099,0 -2.066243,4.50908 0.435547,6.83985 3.3256,3.09827 10.056897,3.7985 39.035157,4.0625 12.511762,0.11398 19.706264,0.37521 23.150394,0.60742 0.70289,0.0474 4.67965,0.08 4.72461,0.125 0.26524,0.26525 1.02753,3.16181 1.69531,6.43555 0.66778,3.27374 1.91707,6.65338 2.77539,7.51171 0.85833,0.85833 1.56151,2.09202 1.5625,2.74024 0.01,6.28217 18.83112,9.64259 27.4668,4.9043 6.25398,-3.43147 10.26304,-9.24406 11.2871,-16.36719 l 0.76954,-5.35938 1.89648,-0.0332 29.5918,-0.50391 c 33.14225,-0.56453 36.15156,-0.96341 39.33008,-5.2207 4.10267,-5.49508 5.99976,-5.41457 -82.4375,-5.55859 -2.10374,-0.003 -2.84395,-0.01 -5.05274,-0.0137 -6.88521,-0.0117 -12.79753,-0.0524 -19.73633,-0.0723 -36.669262,-0.10512 -67.864949,-0.29394 -75.517575,-0.50781 z m 90.007815,11.41015 h 17.39258 v 4.03907 c 0,12.33841 -12.33265,20.70489 -24.67188,16.73632 -5.30117,-1.70497 -9.27438,-6.67921 -10.24609,-12.82617 -0.48454,-3.0652 -0.88234,-4.93854 -0.22461,-6.09765 0.1813,-0.31951 0.50811,-0.55679 0.87304,-0.7754 l -0.01,-0.0762 h 0.10156 c 0.1066,-0.0579 0.19929,-0.12845 0.32227,-0.17968 2.14843,-0.89517 6.8278,-0.82032 16.46289,-0.82032 z"
       style="fill:#316342;fill-opacity:0.738956;stroke:#795932;stroke-opacity:1"
       id="path40"
       inkscape:label="gift-handle" />
    <path
       d="m 156.68164,912.4375 -1.89648,0.0332 -0.76954,5.35938 c -1.02406,7.12313 -5.03312,12.93572 -11.2871,16.36719 -8.63568,4.73829 -27.4568,1.37787 -27.4668,-4.9043 -9.9e-4,-0.64822 -0.70417,-1.88191 -1.5625,-2.74024 -0.85832,-0.85833 -2.10761,-4.23797 -2.77539,-7.51171 -0.66778,-3.27374 -1.43007,-6.1703 -1.69531,-6.43555 -0.045,-0.045 -4.02172,-0.0776 -4.72461,-0.125 -0.13325,0.16208 -0.26411,0.3255 -0.39258,0.49023 H 78.695312 49.482422 l 0.412109,25.75 c 0.72583,45.32135 1.104182,49.92525 4.388672,53.60352 l 2.808594,3.14648 25.833984,0.5 c 49.434609,0.95678 122.561789,0.0281 125.070309,-1.58789 2.88248,-1.85694 5.32631,-5.6189 6.29297,-9.6875 l 0.76563,-3.22461 0.0762,2.10938 c 0.08,-0.36925 0.17144,-0.668 0.24219,-1.08789 -0.0609,-0.52153 0.63368,-12.30788 0.96289,-19.11719 0.039,-0.89715 0.0251,-0.98183 0.0625,-1.86719 0.21833,-5.16857 0.28337,-7.86237 0.36523,-10.90039 -0.47109,-0.98421 -0.44399,-5.14323 -0.0996,-17.28906 0.47453,-16.73649 0.34785,-19.22828 -1.01172,-19.75 -0.85573,-0.32837 -14.68209,-0.59515 -30.72461,-0.5918 l -27.97461,0.006 c -0.0878,-0.18255 -0.17833,-0.3642 -0.27148,-0.54492 z"
       style="fill:#316342;fill-opacity:1;stroke:#795932;stroke-opacity:1"
       id="path39" />
    <path
       d="m 132.86719,911.9707 c -9.63509,0 -14.31446,-0.0748 -16.46289,0.82032 l -0.22461,0.17968 -0.18164,0.14649 -0.88086,0.70508 c -0.65773,1.15911 -0.25993,3.03245 0.22461,6.09765 0.97171,6.14696 4.94492,11.1212 10.24609,12.82617 12.33923,3.96857 24.67188,-4.39791 24.67188,-16.73632 v -4.03907 z"
       style="fill:#316342;fill-opacity:1;stroke:#795932;stroke-opacity:1"
       id="path38" />
    <path
       d="m 216.79102,950.73828 c -0.0915,3.71087 -0.23243,6.54408 -0.23243,8.23242 0,0.36606 -0.11289,2.10831 -0.15039,2.98438 0.0282,7.59959 -0.18256,15.48365 -1.0332,20.53515 -0.009,0.10077 -0.052,1.09874 -0.0586,1.14258 -0.0106,0.07 0.0603,-1.10951 0.0566,-1.14062 -0.0708,0.41989 -0.16218,0.71864 -0.24219,1.08789 l 0.0273,0.77344 c 0.1052,2.96197 -3.34187,9.61718 -4.98047,9.61718 -0.50514,0 -0.91837,0.3375 -0.91796,0.75 0.002,2.17298 33.46016,1.28379 37.40429,-0.99414 14.83123,-8.56577 14.98745,-35.15354 0.25196,-43.0332 -5.91002,-3.16033 -26.69814,-3.29702 -29.20508,-0.19141 -0.42741,0.52948 -0.70839,0.58096 -0.91992,0.23633 z"
       style="fill:#316342;fill-opacity:1;stroke:#795932;stroke-opacity:1"
       id="path36"
       inkscape:label="house-base"
       inkscape:export-filename="logo-icon.png"
       inkscape:export-xdpi="96"
       inkscape:export-ydpi="96" />
  </g>
</svg>
